<svg width="1920" height="1080" viewBox="0 0 1920 1080" fill="none" xmlns="http://www.w3.org/2000/svg">
<g clip-path="url(#clip0_3969_605)">
<rect width="1080" height="1920" transform="translate(1920 8.39259e-05) rotate(90)" fill="white"/>
<rect width="1080" height="1920" transform="translate(1920 8.39259e-05) rotate(90)" fill="#C52609"/>
<path d="M1599.38 -287.17C1577.11 -347.484 1466.94 -370.577 1466.94 -370.577L1449.18 -326.495C1449.31 -326.455 1506.45 -308.109 1519.99 -258.599C1533.32 -209.816 1433.14 -189.849 1444.6 -69.2206C1444.13 -69.01 1443.66 -68.8006 1443.2 -68.5868C1406.76 -52.006 1358.93 -26.0463 1295.18 12.0395C1289.78 15.2652 1284.57 18.4666 1279.53 21.6414C1238.51 -5.58808 1200.39 -28.6873 1123.15 -60.7738C1138.53 -64.4916 1145.8 -73.9356 1149.35 -96.0468C1128.28 -89.8034 1109.77 -86.7459 1090.48 -81.3485C1109.59 -89.638 1117.97 -95.0615 1118.19 -120.716C1118.13 -120.692 1093.81 -109.333 1065.74 -95.7644C1051.03 -88.6522 1008.65 -66.1412 1008.52 -66.0732L892.626 -14.5651L902 13.4985L1004.7 27.3935C1041.34 39.2085 1051.44 44.16 1077.45 26.221C1154.91 112.478 1112.14 137.796 1152.09 196.412C1095.62 275.748 1023.99 360.039 869.581 437.109L896.545 468.906C1056.74 392.013 1094.48 371.871 1211.56 248.103C1221.81 253.558 1235.13 254.56 1250.47 252.238C1238.25 351.031 1201.83 461.902 1104.3 609.4L1143.55 623.455C1244.96 475.133 1308.54 387.785 1355.48 209.044C1391.63 188.307 1428.56 163.007 1460.32 139.323C1473.31 162.115 1492.83 178.053 1520.79 194.977C1567.39 223.193 1717.49 261.212 1739.61 84.6084C1798.14 129.578 1849.8 147.891 1907.27 160.95L1915.4 128.906C1846.81 103.183 1783.02 55.2896 1724.23 10.8475C1714.46 32.1772 1699.4 63.4762 1687.76 80.4786L1627.21 46.8246C1670.51 11.4371 1701.08 -33.2292 1701.08 -33.2292C1790.36 -17.2386 1837.28 -4.05312 1918.67 27.4686L1923.83 -10.1322C1830.04 -62.2588 1624.11 -167.167 1506.91 -116.892C1546.49 -171.352 1633.68 -194.274 1599.38 -287.17Z" fill="url(#paint0_linear_3969_605)"/>
<path d="M1506.83 491.648C1725.51 562.133 1763.22 286.238 1567.12 215.681L1545.34 277.419C1684.73 333.193 1671.64 519.693 1492.15 441.186C1482.88 437.131 1475.4 433.516 1470.29 430.946C1469.47 430.533 1468.71 430.145 1468.02 429.79C1465.51 427.195 1462.9 424.65 1460.18 422.163C1448.83 411.794 1435.02 401.862 1419.59 392.357L1401.28 465.478L1389.86 462.618L1409.04 386.056C1403.24 382.7 1397.25 379.399 1391.13 376.154L1368.58 466.159L1365.41 465.365L1358.63 457.424L1380.39 370.593C1375.94 368.339 1371.43 366.112 1366.87 363.913L1347.56 441.008L1336.14 438.147L1356.03 358.766C1282.7 324.54 1200.48 297.161 1166.26 276.086C1150.05 221.674 1109.01 165.247 1078.34 133.196C1075.45 124.01 1070.88 115.988 1064.88 110.22C1048.29 94.3066 1045.63 67.3467 1028.23 67.8269C1017.34 68.1277 1020.64 87.5202 1020.55 87.5696C1000.43 78.2354 996.145 59.1251 989.966 63.4693C983.795 67.8089 990.047 81.8599 990.061 81.8918C989.924 81.9154 945.45 89.5658 930.229 115.034C923.707 121.507 910.171 131.167 881 137.022C863.305 140.575 867.163 180.2 885.901 190.979C881.65 203.229 895.933 210.86 899.489 212.759L899.512 212.772C908.429 217.535 941.776 217.756 941.926 217.757C950.416 227.775 966.889 237.887 982.876 240.645C978.528 258.168 975.082 274.224 972.907 289.143C918.24 236.234 784.767 224.091 784.643 224.08L797.226 276.431L895.262 294.146C904.808 305.76 938.668 335.18 971.477 354.793C965.814 365.859 964.945 382.168 966.63 404.928C915.537 357.246 785.979 340.184 785.944 340.179L786.859 396.129L905.502 420.37C924.536 443.528 1001.83 515.379 1030.24 486.031C1045.34 470.425 1034.2 449.301 1032.08 434.981C1040.7 441.359 1050.69 447.332 1061.58 452.903L1123.34 389.09L1131.8 397.275L1072.72 458.322C1078.86 461.17 1085.22 463.903 1091.71 466.519L1141.7 414.868L1150.16 423.054L1103.63 471.136C1108.09 472.803 1112.61 474.416 1117.14 475.978L1170.97 420.357L1179.43 428.543L1129.52 480.106C1194.56 501.076 1259.74 511.418 1259.74 511.418C1259.75 511.425 1259.79 511.496 1259.86 511.631C1264.56 546.323 1280.07 582.133 1296.24 598.705C1326.27 629.475 1363.45 664.341 1396 668.228C1384.74 735.068 1399.37 803.322 1464.03 846.824L1517.65 808.935L1462.56 747.703C1456.19 723.787 1464.16 676.978 1467.75 634.202C1500.73 640.188 1519.88 634.092 1527.62 623.395C1548.72 704.01 1585.56 734.923 1656.79 766.556L1691.67 703.796L1627.42 678.861L1579.99 606.712C1586.77 592.079 1593.69 560.732 1567.08 552.405C1555.05 548.64 1536.78 550.512 1518.05 554.678C1518.32 535.268 1514.91 513.396 1506.83 491.648ZM1494.79 200.658C1485.69 199.946 1476.27 199.591 1466.52 199.623L1460.36 262.253C1469.54 262.223 1478.36 262.653 1486.84 263.492L1494.79 200.658ZM1528.45 205.156C1521.37 203.792 1514.06 202.664 1506.51 201.791L1498.52 264.938C1503.73 265.716 1508.8 266.653 1513.72 267.739L1528.45 205.156ZM1555.95 211.965C1550.77 210.379 1545.44 208.93 1539.96 207.628L1525.14 270.591C1528.25 271.461 1531.3 272.392 1534.29 273.381L1555.95 211.965Z" fill="url(#paint1_linear_3969_605)"/>
<path d="M328.254 502.652C289.97 321.66 174.246 265.139 108.721 277.796C40.643 292.909 3.94786 287.915 -19.9467 272.102L-51.1094 302.303C-18.2819 328.107 21.2581 331.309 80.9125 321.116C213.742 297.07 242.914 411.818 243.006 412.18C229.688 412.901 216.726 416.94 205.293 423.934C193.859 430.929 184.309 440.662 177.507 452.249C177.48 451.97 171.309 389.363 139.986 391.063C108.714 392.761 82.612 459.513 82.4098 460.031C5.82514 512.08 -77.0222 494.745 -158.822 490.007L-167.088 556.611C-51.4804 577.834 7.49415 567.045 100.533 530.882C110.876 577.672 143.413 607.016 174.978 641.785C174.761 641.572 88.3851 556.857 50.692 575.954C12.9529 595.078 7.04687 648.432 34.5064 673.865C84.2768 721.08 122.42 813.476 106.139 890.562L154.194 892.695C162.351 852.362 161.645 752.786 100.464 672.653C157.141 742.539 189.61 772.165 240.53 746.456C259.043 795.926 273.446 831.784 293.798 855.078L305.405 809.162L317.787 812.232L304.317 865.519C308.889 869.408 313.77 872.788 319.049 875.669L333.597 818.121L345.984 821.193L330.859 881.027C337.632 883.535 345.008 885.384 353.116 886.595L366.032 835.51L378.417 838.575L365.937 887.947C380.809 888.898 397.916 888.069 417.857 885.514C435.269 908.949 508.184 959.237 508.565 959.501L570.528 891.277L668.043 826.595L768.873 873.057L795.931 803.918C666.834 716.696 608.997 785.9 529.901 856.771L515.54 806.734L672.643 691.88L794.926 764.493L812.599 705.304C812.375 705.15 720.665 641.965 686.584 640.653C652.463 639.342 601.257 651.458 553.922 697.637C554.172 677.852 547.189 658.78 534.385 643.997C559.497 633.582 554.2 592.887 542.391 574.551C542.391 574.551 551.42 544.212 549.563 534.813L549.558 534.789C548.819 531.05 545.851 516.028 533.599 516.5C529.009 496.582 494.229 482.179 486.142 497.208C472.813 521.98 460.348 531.564 452.697 535.681C425.427 542.445 406.24 580.674 406.24 580.674C406.175 580.617 395.216 571.135 389.602 575.514C383.972 579.907 400.077 589.047 402.979 609.814C402.841 609.844 386.271 601.576 383.005 611.328C378.042 626.147 399.128 635.756 409.677 653.294L409.573 653.304C406.15 681.93 373.137 725.378 340.291 666.9C341.489 636.157 340.997 607.539 339.062 580.941L286.68 582.003L286.518 569.163L338.008 568.122C337.481 562.414 336.88 556.802 336.219 551.286L284.389 552.338L284.233 539.496L334.547 538.476C333.427 530.595 332.168 522.918 330.782 515.443L274.956 516.578L274.796 503.735L328.254 502.652ZM-72.718 280.97C-68.9363 285.515 -65.0979 289.68 -61.1779 293.481L-30.488 263.738C-33.2281 261.166 -35.7895 258.426 -38.2163 255.536L-72.718 280.97ZM-88.3499 259.575C-85.8785 263.374 -83.397 266.988 -80.8993 270.425L-46.2305 244.868C-48.6609 241.294 -50.9894 237.568 -53.2836 233.725L-88.3499 259.575ZM-104.621 231.767C-101.542 237.545 -98.4732 243.018 -95.4037 248.198L-59.996 222.098C-63.734 215.478 -67.5435 208.624 -71.7014 201.676L-104.621 231.767Z" fill="url(#paint2_linear_3969_605)"/>
<path d="M1136.3 455.953C1148.89 533.533 1443.89 586.358 1269.72 733.21L1247.69 717.408C1343.71 604.216 1133.61 599.539 1092.05 481.716L1136.3 455.953Z" fill="url(#paint3_linear_3969_605)"/>
<path d="M1671.22 822.924C1671.12 822.83 1647.82 800.483 1619.59 786.031C1609.7 780.967 1565.67 759.558 1565.58 759.516L1454.28 706.824L1439.56 731.493L1494.36 815.883C1508.87 850.337 1517.63 862.635 1547.3 870.427C1537.84 900.333 1377.17 993.157 1376.98 993.266L1372.41 994.871C1344.33 946.375 1320.09 898.387 1297.82 858.19C1309.32 826.647 1309.18 789.761 1285.37 750.04C1187.14 586.189 1037.49 667.267 1054.67 763.019L1019.52 787.269C1002.88 776.174 964.056 703.64 947.521 687.972C898.344 742.206 852.29 859.319 839.258 933.612L905.098 970.205C914.758 888.967 913.39 849.614 955.236 794.852C984.768 847.978 1018.01 885.315 1050.24 911.121C995.381 1009.92 1003.81 1178.18 1012.25 1311.02L1052.33 1310.88C1051.93 1198.32 1056.14 1121.68 1079.34 1056.93C1101.65 1055.21 1125.93 1043.71 1147.66 1026.6C1151.33 1037.66 1155.69 1048.44 1160.8 1058.79C1193.05 1124.12 1248.04 1168.53 1298.92 1187.74C1307.79 1240 1343 1414.15 1435.86 1544.19L1489.73 1536.35C1424.56 1430.07 1382.72 1298.21 1371.59 1196.6C1372.37 1196.43 1373.15 1196.25 1373.92 1196.06C1385.9 1197.63 1397.59 1198.1 1408.96 1197.57C1429.52 1257.01 1452.25 1291.16 1577.91 1258.75L1625.04 1375.61L1686.75 1350.98L1619.12 1184.61C1619.12 1184.61 1520.75 1219.7 1482.85 1205.91C1482.85 1205.89 1481.07 1196.54 1475.62 1182.16C1594.69 1131.1 1661.16 966.064 1634.2 855.391C1646.92 867.539 1658.69 870.195 1674.7 857.673C1652.38 845.43 1647.98 830.25 1632.87 822.929C1646.54 825.395 1658.62 831.148 1671.22 822.924Z" fill="url(#paint4_linear_3969_605)"/>
<path d="M1237.75 1579.39C1243.05 1568.46 1251.88 1536.09 1244.7 1494.04C1237.52 1451.99 1164.89 1436.16 1129.47 1433.51L1094.92 1373.3L1157.05 1347.43C1157.39 1347.53 1157.74 1347.64 1158.09 1347.74C1171.15 1377.57 1218.74 1368.13 1239.19 1352.82C1239.38 1352.86 1274.79 1360.72 1285.41 1357.84L1285.44 1357.83C1289.67 1356.68 1306.68 1352.05 1305.15 1338.02C1327.65 1331.14 1341.38 1290.03 1323.46 1281.96C1293.94 1268.66 1281.92 1255.12 1276.57 1246.66C1266.61 1215.95 1221.31 1197.02 1221.14 1196.95C1221.25 1196.81 1231.19 1183.51 1225.72 1177.43C1220.22 1171.32 1211.03 1190.56 1187.41 1195.57C1187.39 1195.36 1195.51 1175.71 1184.06 1172.75C1170.31 1169.2 1161.6 1184.03 1149.05 1197.09L1110.85 1196.72L1033.21 1133.67C1029.56 1107.05 1046.46 1050.1 1008.92 985.415L953.594 1046.04L945.475 1038.63L1002.91 975.701C999.167 970.033 994.99 964.315 990.328 958.563L932.837 1021.56L924.717 1014.15L983.154 950.117C978.709 945.122 973.883 940.108 968.647 935.082L912.065 997.081L903.945 989.67L960.573 927.62C947.936 916.359 933.164 905.066 915.904 893.846C907.814 888.586 899.68 884.134 891.572 880.477C844.661 790.541 734.927 700.647 799.957 600.613C828.926 556.051 862.227 550.044 937.842 605.306C976.512 633.567 1015.23 644.365 1051.64 642.432L1024.59 568.769C1004.9 563.96 984.65 553.085 961.323 536.037C906.358 495.867 808.48 471.489 748.83 563.246C673.292 679.443 770.902 791.961 823.461 868.349C793.456 871.717 767.203 887.57 749.373 914.997C705.019 983.225 740.139 1056.39 711.079 1037.5C695.918 1027.64 672.418 983.607 636.279 1039.2C575.61 1132.52 581.304 1237.12 668.483 1293.8L693.945 1254.63C652.252 1227.53 647.518 1143.56 683.721 1093.41C687.079 1114.71 707.81 1134.76 733.927 1146.14C725.157 1207.95 747.262 1265.86 804.53 1303.09L829.993 1263.93C800.606 1244.82 789.582 1197.47 798.31 1153.62C823.986 1147.63 846.279 1128.92 855.235 1091.32C855.323 1091.33 855.411 1091.34 855.5 1091.34C852.044 1113.61 846.061 1157.86 846.879 1192.93L951.251 1176.03L953.008 1186.88L847.423 1203.98C848.117 1211.72 849.676 1218.48 851.794 1224.37L952.311 1208.09L954.068 1218.94L856.522 1234.74C861.258 1243.15 867.094 1249.12 872.396 1253.26L953.334 1240.16L955.092 1251.01L885.581 1262.26C870.801 1268.65 851.637 1277.49 835.773 1301.9C809.491 1342.33 912.566 1412.33 944.239 1428.13L1003.43 1558.27L1068.06 1544.57C1067.88 1544.08 1014.13 1399.86 945.886 1353.71L967.493 1342.59L1014.24 1372.98L1066.67 1460.99L1174.58 1502.37L1183.1 1552.85L1237.75 1579.39ZM1126.19 620.03C1133.57 615.887 1140.74 611.245 1147.67 606.163L1107.98 555.127C1100.99 558.632 1094.27 561.581 1087.74 563.973L1126.19 620.03ZM1064.26 641.247C1070.66 640.384 1076.99 639.131 1083.22 637.516L1046.69 571.628C1043.96 571.591 1041.24 571.439 1038.53 571.169L1064.26 641.247ZM1095.23 633.918C1102.04 631.605 1108.71 628.862 1115.24 625.729L1075.54 567.851C1070.37 569.233 1065.29 570.237 1060.28 570.863L1095.23 633.918Z" fill="url(#paint5_linear_3969_605)"/>
<path d="M654.494 -34.8659C631.905 -54.6687 594.967 -67.9374 594.967 -67.9374C605.277 -51.5346 618.067 -42.7168 617.45 -33.6654C605.749 -44.3864 587.106 -57.5345 572.344 -58.2895C592.147 -40.6193 587.852 -29.1519 590.829 -23.372C508.57 -11.8632 416.414 59.7293 376.781 148.035C366.711 152.509 357.982 158.122 350.599 164.683C289.951 137.32 226.854 120.698 119.619 93.524L96.4122 135.603C190.206 160.919 262.084 192.688 320.623 227.508C319.482 243.357 321.711 260.383 327.33 277.837C236.018 239.722 169.846 230.865 22.5866 213.63L5.10397 258.392C227.306 287.885 325.131 363.715 423.98 436.713L448.807 414.627C484.761 435.759 528.313 453.335 579.534 464.893C607.49 494.123 636.365 532.436 670.716 553.409C711.765 628.849 790.304 681.393 872.158 643.181C863.655 732.378 878.139 797.318 901.78 864.856L939.978 852.543C922.195 765.411 930.309 668.915 938.098 579.785C909.858 583.492 867.954 588.191 842.965 587.192L840.314 537.042C880.864 558.744 927.191 569.327 972.671 559.267C1022.39 624.851 1054.55 654.371 1116.55 700.305L1145.16 671.974C1066.84 618.081 1041.76 564.44 980.252 485.902C980.169 485.95 964.045 495.241 951.668 500.485C909.985 512.387 880.394 469.124 874.777 427.281C872.958 403.248 859.955 383.814 843.937 368.242C889.215 266.246 980.568 441.334 1090.92 416.988L1099.57 349.814C1034.11 377.125 835.319 167.137 815.956 345.813C800.92 335.533 787.084 328.003 780.249 322.699C778.827 322.272 777.49 321.903 776.234 321.591C747.766 303.656 710.737 294.26 658.455 297.052L598.798 263.896C583.792 224.553 567.817 194.8 548.623 173.779C549.439 159.043 555.996 83.9291 605.566 58.0615C622.76 81.4144 636.617 84.8194 671.941 85.5474L765.181 104.255L781.718 82.7214L696.62 3.33051C696.544 3.26131 662.391 -27.9422 654.494 -34.8659Z" fill="url(#paint6_linear_3969_605)"/>
</g>
<defs>
<linearGradient id="paint0_linear_3969_605" x1="1781.26" y1="387.687" x2="931.535" y2="-84.5726" gradientUnits="userSpaceOnUse">
<stop stop-color="#EC4C30"/>
<stop offset="1" stop-color="#BC1D00"/>
</linearGradient>
<linearGradient id="paint1_linear_3969_605" x1="1335.85" y1="102.429" x2="707.091" y2="439.32" gradientUnits="userSpaceOnUse">
<stop stop-color="#EC4C30"/>
<stop offset="1" stop-color="#BC1D00"/>
</linearGradient>
<linearGradient id="paint2_linear_3969_605" x1="742.051" y1="921.318" x2="-197.608" y2="399.075" gradientUnits="userSpaceOnUse">
<stop stop-color="#EC4C30"/>
<stop offset="1" stop-color="#BC1D00"/>
</linearGradient>
<linearGradient id="paint3_linear_3969_605" x1="1299.23" y1="716.307" x2="1146.7" y2="449.993" gradientUnits="userSpaceOnUse">
<stop stop-color="#EC4C30"/>
<stop offset="1" stop-color="#BC1D00"/>
</linearGradient>
<linearGradient id="paint4_linear_3969_605" x1="1727.68" y1="1277.32" x2="875.529" y2="803.708" gradientUnits="userSpaceOnUse">
<stop stop-color="#EC4C30"/>
<stop offset="1" stop-color="#BC1D00"/>
</linearGradient>
<linearGradient id="paint5_linear_3969_605" x1="585.917" y1="1113.73" x2="1283.96" y2="1000.69" gradientUnits="userSpaceOnUse">
<stop stop-color="#EC4C30"/>
<stop offset="1" stop-color="#BC1D00"/>
</linearGradient>
<linearGradient id="paint6_linear_3969_605" x1="1168.35" y1="630.257" x2="116.072" y2="45.4235" gradientUnits="userSpaceOnUse">
<stop stop-color="#EC4C30"/>
<stop offset="1" stop-color="#BC1D00"/>
</linearGradient>
<clipPath id="clip0_3969_605">
<rect width="1080" height="1920" fill="white" transform="translate(1920 8.39259e-05) rotate(90)"/>
</clipPath>
</defs>
</svg>
